#!OML:ASF H:\MichaelJackson\Top Level 1\Subject 1\Session 1\male.ASF
:FULLY-SPECIFIED
:DEGREES
1004
root -8.24369 17.2941 -6.99197 -167.722 -8.07041 -174.895
lowerback 5.94867 -0.0838465 5.06161
upperback 2.26011 -0.0423053 2.92714
thorax -0.994757 -0.122225 0.180441
lowerneck -7.28375 -2.72635 0.186049
upperneck 4.51373 -3.71618 0.890752
head 2.71616 -1.81292 0.0838395
rclavicle 5.36719e-015 -4.6118e-014
rhumerus -48.6753 19.3351 -96.3093
rradius 63.9284
rwrist 18.4951
rhand -14.6832 -26.8907
rfingers 7.12502
rthumb 11.4703 -56.5569
lclavicle 5.36719e-015 -4.6118e-014
lhumerus -36.9777 -19.7334 94.4359
lradius 98.5803
lwrist -14.0575
lhand -39.0174 8.78726
lfingers 7.12502
lthumb -12.0204 38.4221
rfemur -21.1084 -6.61053 26.539
rtibia 40.2324
rfoot -12.6427 -0.0122274
rtoes -13.4754
lfemur -45.8167 5.22076 -16.0889
ltibia 36.725
lfoot 7.39643 -0.329616
ltoes 31.2302
1005
root -8.22311 17.2917 -6.89823 -167.755 -8.16615 -175.01
lowerback 5.9848 -0.0634239 5.07818
upperback 2.31214 -0.0153752 2.879
thorax -0.96015 -0.107501 0.119754
lowerneck -7.14107 -2.77507 0.254616
upperneck 4.3806 -3.77956 0.796329
head 2.64097 -1.84766 0.0425961
rclavicle -1.66979e-014 -4.65156e-014
rhumerus -48.42 19.8447 -96.325
rradius 64.3887
rwrist 19.0826
rhand -12.826 -26.1432
rfingers 7.12502
rthumb 13.2609 -55.7014
lclavicle -1.66979e-014 -4.65156e-014
lhumerus -37.6979 -19.2506 94.8323
lradius 97.3874
lwrist -13.7984
lhand -37.0273 9.91967
lfingers 7.12502
lthumb -10.101 39.6572
rfemur -21.0724 -6.59778 26.6119
rtibia 39.8116
rfoot -13.0146 -0.948012
rtoes -13.4775
lfemur -46.3402 5.434 -16.3202
ltibia 37.5877
lfoot 7.91324 -1.2849
ltoes 30.4313
1006
root -8.20392 17.288 -6.80123 -167.825 -8.18392 -175.077
lowerback 6.18389 -0.049613 5.10747
upperback 2.30052 0.0205991 2.83084
thorax -1.08162 -0.0912583 0.0521057
lowerneck -6.97782 -2.85259 0.249413
upperneck 4.31439 -3.88509 0.861862
head 2.59004 -1.89909 0.0631044
rclavicle -1.39149e-015 5.56597e-014
rhumerus -48.2829 20.5226 -96.4031
rradius 64.9163
rwrist 19.6244
rhand -10.7273 -25.4342
rfingers 7.12502
rthumb 15.2831 -54.8495
lclavicle -1.39149e-015 5.56597e-014
lhumerus -38.5796 -18.5535 95.2022
lradius 96.4527
lwrist -13.455
lhand -34.6923 10.9754
lfingers 7.12502
lthumb -7.8478 40.8098
rfemur -21.0858 -6.43385 26.6897
rtibia 39.463
rfoot -12.998 -1.70366
rtoes -13.922
lfemur -46.8547 5.55885 -16.4073
ltibia 38.7124
lfoot 8.27879 -1.95697
ltoes 30.0429
1007
root -8.18699 17.2827 -6.70667 -167.931 -8.24974 -175.108
lowerback 6.3135 -0.0211775 5.1986
upperback 2.37109 0.063167 2.8107
thorax -1.07848 -0.0714541 -0.0221641
lowerneck -7.00523 -2.9166 0.26626
upperneck 4.2756 -3.96967 0.828488
head 2.58116 -1.94203 0.0458028
rclavicle 9.93923e-016 -3.85642e-014
rhumerus -47.9979 21.2409 -96.3527
rradius 65.5074
rwrist 20.1837
rhand -8.69396 -24.801
rfingers 7.12502
rthumb 17.241 -54.0562
lclavicle 9.93923e-016 -3.85642e-014
lhumerus -39.1041 -18.0709 95.4894
lradius 95.2061
lwrist -12.9915
lhand -32.4125 12.7619
lfingers 7.12502
lthumb -5.647 42.6666
rfemur -21.0836 -6.31612 26.7696
rtibia 39.1594
rfoot -13.217 -2.31707
rtoes -13.0106
lfemur -47.3739 5.57442 -16.4145
ltibia 40.0871
lfoot 8.50617 -2.33466
ltoes 30.3322
1008
root -8.17451 17.2796 -6.61777 -168.11 -8.16647 -175.083
lowerback 6.3842 0.0281378 5.37075
upperback 2.45161 0.134822 2.73454
thorax -1.03021 -0.0346323 -0.201686
lowerneck -6.75061 -2.95736 0.400126
upperneck 4.11368 -4.03375 0.83673
head 2.47671 -1.97352 0.02897
rclavicle -5.96354e-016 3.97569e-015
rhumerus -47.797 22.0855 -96.4525
rradius 66.1313
rwrist 20.7849
rhand -6.50405 -24.57
rfingers 7.12502
rthumb 19.3478 -53.6275
lclavicle -5.96354e-016 3.97569e-015
lhumerus -39.7605 -17.4126 95.7067
lradius 94.1154
lwrist -12.2941
lhand -30.3041 13.7524
lfingers 7.12502
lthumb -3.61116 43.7016
rfemur -21.0245 -6.19469 26.8261
rtibia 38.88
rfoot -13.9613 -2.53136
rtoes -15.1721
lfemur -47.8519 5.7838 -16.4269
ltibia 41.6889
lfoot 8.83043 -2.7874
ltoes 30.1842
1009
root -8.16111 17.2766 -6.52389 -168.268 -8.31518 -175.057
lowerback 6.47379 -0.0632588 5.50668
upperback 2.44268 0.0298643 2.67584
thorax -1.09302 -0.0868467 -0.330134
lowerneck -6.2424 -2.9609 0.564664
upperneck 3.89472 -4.05221 0.931236
head 2.30833 -1.98107 0.0414815
rclavicle 9.93923e-016 0
rhumerus -47.693 23.1612 -96.6783
rradius 66.7835
rwrist 21.4604
rhand -4.03854 -24.326
rfingers 7.12502
rthumb 21.7169 -53.1278
lclavicle 9.93923e-016 0
lhumerus -40.5175 -16.5794 95.7881
lradius 93.0331
lwrist -11.1927
lhand -28.0451 14.5625
lfingers 7.12502
lthumb -1.42946 44.5374
rfemur -21.037 -6.1455 26.9047
rtibia 38.6283
rfoot -14.0696 -2.92441
rtoes -15.5748
lfemur -48.4905 5.78363 -16.43
ltibia 43.5204
lfoot 9.12749 -3.12814
ltoes 30.057
